<svg xmlns="http://www.w3.org/2000/svg" viewBox="0 0 800 100" aria-hidden="true">
<g transform="translate(0 0) scale(1.5625)"><g transform="translate(2.4 3.2)"><circle cx="16.2" cy="15.6" r="5.4" fill="#F4FAFF"/><circle cx="16.2" cy="15.6" r="3" fill="#FFFFFF" fill-opacity=".85"/><circle cx="43" cy="15.6" r="5.4" fill="#F4FAFF"/><circle cx="43" cy="15.6" r="3" fill="#FFFFFF" fill-opacity=".85"/><ellipse cx="29.6" cy="27.4" rx="17" ry="16" fill="#F4FAFF"/><ellipse cx="29.6" cy="32.84" rx="15.81" ry="9.92" fill="#CBDDEB" fill-opacity=".5"/><ellipse cx="29.6" cy="27.4" rx="17" ry="16" fill="none" stroke="#123C51" stroke-opacity=".16" stroke-width="1"/><ellipse cx="29.6" cy="35.8" rx="9.4" ry="6.8" fill="#FFFFFF" fill-opacity=".92"/><ellipse cx="29.6" cy="32.94" rx="2.9" ry="2.2" fill="#123C51"/><path d="M29.6 35.34 q0 3 -3 3M29.6 35.34 q0 3 3 3" fill="none" stroke="#123C51" stroke-width="1.5" stroke-linecap="round" stroke-linejoin="round" stroke-opacity=".8"/><ellipse cx="23.2" cy="27" rx="3.1" ry="3.6" fill="#123C51"/><circle cx="22.2" cy="25.7" r="1.25" fill="#fff" fill-opacity=".92"/><circle cx="24.2" cy="28.2" r="0.6" fill="#fff" fill-opacity=".55"/><ellipse cx="36" cy="27" rx="3.1" ry="3.6" fill="#123C51"/><circle cx="35" cy="25.7" r="1.25" fill="#fff" fill-opacity=".92"/><circle cx="37" cy="28.2" r="0.6" fill="#fff" fill-opacity=".55"/><ellipse cx="17.4" cy="32" rx="3.2" ry="2.2" fill="#7FC7DE" fill-opacity=".62"/><ellipse cx="41.8" cy="32" rx="3.2" ry="2.2" fill="#7FC7DE" fill-opacity=".62"/></g></g>
<g transform="translate(100 0) scale(1.5625)"><g transform="translate(2.4 3.2)"><path d="M13.8 19.8 L16.5 8.6 L20.2 19.8 Z" fill="#EAF4FF"/><path d="M15.3 18.8 L16.6 11.2 L18.7 18.8 Z" fill="#FFFFFF" fill-opacity=".85"/><path d="M39 19.8 L42.7 8.6 L45.4 19.8 Z" fill="#EAF4FF"/><path d="M40.5 18.8 L42.6 11.2 L43.9 18.8 Z" fill="#FFFFFF" fill-opacity=".85"/><ellipse cx="29.6" cy="27.4" rx="17" ry="16" fill="#EAF4FF"/><ellipse cx="29.6" cy="32.84" rx="15.81" ry="9.92" fill="#B9D2E6" fill-opacity=".5"/><ellipse cx="29.6" cy="27.4" rx="17" ry="16" fill="none" stroke="#123C51" stroke-opacity=".16" stroke-width="1"/><ellipse cx="29.6" cy="35.8" rx="8.6" ry="6.2" fill="#FFFFFF" fill-opacity=".92"/><path d="M26.7 31.9 h5.8 l-2.9 3.3 Z" fill="#123C51"/><path d="M29.6 35.6 q0 3 -3 3M29.6 35.6 q0 3 3 3" fill="none" stroke="#123C51" stroke-width="1.5" stroke-linecap="round" stroke-linejoin="round" stroke-opacity=".8"/><ellipse cx="23.2" cy="27" rx="3.1" ry="3.6" fill="#123C51"/><circle cx="22.2" cy="25.7" r="1.25" fill="#fff" fill-opacity=".92"/><circle cx="24.2" cy="28.2" r="0.6" fill="#fff" fill-opacity=".55"/><ellipse cx="36" cy="27" rx="3.1" ry="3.6" fill="#123C51"/><circle cx="35" cy="25.7" r="1.25" fill="#fff" fill-opacity=".92"/><circle cx="37" cy="28.2" r="0.6" fill="#fff" fill-opacity=".55"/><ellipse cx="17.2" cy="32.8" rx="3.2" ry="2.2" fill="#7FC7DE" fill-opacity=".62"/><ellipse cx="42" cy="32.8" rx="3.2" ry="2.2" fill="#7FC7DE" fill-opacity=".62"/></g></g>
<g transform="translate(200 0) scale(1.5625)"><g transform="translate(2.4 3.2)"><path d="M17.2 25.4 C10.74 12.4 1.24 11.1 -1.8 20.98 q1.6 4.68 5.6 5.2 q1.2 4.16 5 4.42 q1 3.64 4.4 3.38Z" fill="#C6D8E6"/><path d="M17.2 25.4 C10.74 12.4 1.24 11.1 -1.8 20.98 q1.6 4.68 5.6 5.2 q1.2 4.16 5 4.42 q1 3.64 4.4 3.38Z" fill="none" stroke="#FBFDFF" stroke-width="1.1" stroke-opacity=".9"/><path d="M42 25.4 C48.46 12.4 57.96 11.1 61 20.98 q-1.6 4.68 -5.6 5.2 q-1.2 4.16 -5 4.42 q-1 3.64 -4.4 3.38Z" fill="#C6D8E6"/><path d="M42 25.4 C48.46 12.4 57.96 11.1 61 20.98 q-1.6 4.68 -5.6 5.2 q-1.2 4.16 -5 4.42 q-1 3.64 -4.4 3.38Z" fill="none" stroke="#FBFDFF" stroke-width="1.1" stroke-opacity=".9"/><ellipse cx="29.6" cy="27.4" rx="16.4" ry="15.4" fill="#FBFDFF"/><ellipse cx="29.6" cy="32.64" rx="15.25" ry="9.55" fill="#C6D8E6" fill-opacity=".5"/><ellipse cx="29.6" cy="27.4" rx="16.4" ry="15.4" fill="none" stroke="#123C51" stroke-opacity=".16" stroke-width="1"/><ellipse cx="23.7" cy="26" rx="6.2" ry="6.6" fill="#FFFFFF" stroke="#C6D8E6" stroke-width="1.1"/><ellipse cx="35.5" cy="26" rx="6.2" ry="6.6" fill="#FFFFFF" stroke="#C6D8E6" stroke-width="1.1"/><ellipse cx="23.7" cy="26" rx="3.2" ry="3.4" fill="#123C51"/><circle cx="22.7" cy="24.7" r="1.25" fill="#fff" fill-opacity=".92"/><circle cx="24.7" cy="27.2" r="0.6" fill="#fff" fill-opacity=".55"/><ellipse cx="35.5" cy="26" rx="3.2" ry="3.4" fill="#123C51"/><circle cx="34.5" cy="24.7" r="1.25" fill="#fff" fill-opacity=".92"/><circle cx="36.5" cy="27.2" r="0.6" fill="#fff" fill-opacity=".55"/><path d="M26.6 32.6h6L29.6 37Z" fill="#F0B45E"/><ellipse cx="17" cy="32.8" rx="3.2" ry="2.2" fill="#7FC7DE" fill-opacity=".62"/><ellipse cx="42.2" cy="32.8" rx="3.2" ry="2.2" fill="#7FC7DE" fill-opacity=".62"/></g></g>
<g transform="translate(300 0) scale(1.5625)"><g transform="translate(2.4 3.2)"><ellipse cx="29.6" cy="27.4" rx="16.4" ry="15.2" fill="#C8D9E8"/><ellipse cx="29.6" cy="32.57" rx="15.25" ry="9.42" fill="#9FB6CB" fill-opacity=".5"/><ellipse cx="29.6" cy="27.4" rx="16.4" ry="15.2" fill="none" stroke="#123C51" stroke-opacity=".16" stroke-width="1"/><ellipse cx="29.6" cy="34.8" rx="10.2" ry="6.8" fill="#EFF6FC" fill-opacity=".95"/><ellipse cx="29.6" cy="32.2" rx="2.9" ry="2.2" fill="#123C51"/><path d="M26.400000000000002 37.2 q3.2 2.6 6.4 0" fill="none" stroke="#123C51" stroke-width="1.5" stroke-linecap="round" stroke-linejoin="round" stroke-opacity=".8"/><path d="M21 33.8 h-5M21 36.4 h-4.4M38.2 33.8 h5M38.2 36.4 h4.4" fill="none" stroke="#7C95AE" stroke-width="1.1" stroke-linecap="round" stroke-linejoin="round" stroke-opacity=".75"/><ellipse cx="23" cy="24" rx="3" ry="3.4" fill="#123C51"/><circle cx="22" cy="22.7" r="1.25" fill="#fff" fill-opacity=".92"/><circle cx="24" cy="25.2" r="0.6" fill="#fff" fill-opacity=".55"/><ellipse cx="36.2" cy="24" rx="3" ry="3.4" fill="#123C51"/><circle cx="35.2" cy="22.7" r="1.25" fill="#fff" fill-opacity=".92"/><circle cx="37.2" cy="25.2" r="0.6" fill="#fff" fill-opacity=".55"/><ellipse cx="16.8" cy="29.2" rx="3.2" ry="2.2" fill="#7FC7DE" fill-opacity=".62"/><ellipse cx="42.4" cy="29.2" rx="3.2" ry="2.2" fill="#7FC7DE" fill-opacity=".62"/></g></g>
<g transform="translate(400 0) scale(1.5625)"><g transform="translate(2.4 3.2)"><path d="M24.2 16 q-1.2 -5.4 -4 -6.6 q0.8 4 1.4 6.6 Z" fill="#8C6844"/><path d="M35 16 q1.2 -5.4 4 -6.6 q-0.8 4 -1.4 6.6 Z" fill="#8C6844"/><g transform="rotate(-50 15.4 18)"><ellipse cx="15.4" cy="18" rx="4.4" ry="5.6" fill="#C79B74"/><ellipse cx="15.4" cy="18.6" rx="2.2" ry="3.25" fill="#F0DCC7" fill-opacity=".85"/></g><g transform="rotate(50 43.8 18)"><ellipse cx="43.8" cy="18" rx="4.4" ry="5.6" fill="#C79B74"/><ellipse cx="43.8" cy="18.6" rx="2.2" ry="3.25" fill="#F0DCC7" fill-opacity=".85"/></g><ellipse cx="29.6" cy="27.4" rx="17" ry="16" fill="#C79B74"/><ellipse cx="29.6" cy="32.84" rx="15.81" ry="9.92" fill="#A57B56" fill-opacity=".5"/><ellipse cx="29.6" cy="27.4" rx="17" ry="16" fill="none" stroke="#123C51" stroke-opacity=".16" stroke-width="1"/><ellipse cx="29.6" cy="35.8" rx="9" ry="6.6" fill="#F0DCC7" fill-opacity=".92"/><ellipse cx="29.6" cy="33.03" rx="2.9" ry="2.2" fill="#123C51"/><path d="M29.6 35.43 q0 3 -3 3M29.6 35.43 q0 3 3 3" fill="none" stroke="#123C51" stroke-width="1.5" stroke-linecap="round" stroke-linejoin="round" stroke-opacity=".8"/><ellipse cx="23.2" cy="27" rx="3.1" ry="3.6" fill="#123C51"/><circle cx="22.2" cy="25.7" r="1.25" fill="#fff" fill-opacity=".92"/><circle cx="24.2" cy="28.2" r="0.6" fill="#fff" fill-opacity=".55"/><ellipse cx="36" cy="27" rx="3.1" ry="3.6" fill="#123C51"/><circle cx="35" cy="25.7" r="1.25" fill="#fff" fill-opacity=".92"/><circle cx="37" cy="28.2" r="0.6" fill="#fff" fill-opacity=".55"/><ellipse cx="17.4" cy="32.2" rx="3.2" ry="2.2" fill="#7FC7DE" fill-opacity=".62"/><ellipse cx="41.8" cy="32.2" rx="3.2" ry="2.2" fill="#7FC7DE" fill-opacity=".62"/></g></g>
<g transform="translate(500 0) scale(1.5625)"><g transform="translate(2.4 3.2)"><g transform="rotate(18 14.6 25.4)"><ellipse cx="14.6" cy="25.4" rx="11" ry="13" fill="#1D2536" fill-opacity=".92"/><ellipse cx="14.6" cy="30.86" rx="7.26" ry="5.46" fill="#2F3A50" fill-opacity=".85"/></g><g transform="rotate(-18 44.6 25.4)"><ellipse cx="44.6" cy="25.4" rx="11" ry="13" fill="#1D2536" fill-opacity=".92"/><ellipse cx="44.6" cy="30.86" rx="7.26" ry="5.46" fill="#2F3A50" fill-opacity=".85"/></g><ellipse cx="29.6" cy="27.4" rx="16.2" ry="15.4" fill="#2F3A50"/><ellipse cx="29.6" cy="32.64" rx="15.07" ry="9.55" fill="#1D2536" fill-opacity=".5"/><ellipse cx="29.6" cy="27.4" rx="16.2" ry="15.4" fill="none" stroke="#123C51" stroke-opacity=".16" stroke-width="1"/><ellipse cx="29.6" cy="28.8" rx="11.8" ry="12" fill="#FFFFFF"/><ellipse cx="24.2" cy="25" rx="2.9" ry="3.2" fill="#1B2231"/><circle cx="23.2" cy="23.7" r="1.25" fill="#fff" fill-opacity=".92"/><circle cx="25.2" cy="26.2" r="0.6" fill="#fff" fill-opacity=".55"/><ellipse cx="35" cy="25" rx="2.9" ry="3.2" fill="#1B2231"/><circle cx="34" cy="23.7" r="1.25" fill="#fff" fill-opacity=".92"/><circle cx="36" cy="26.2" r="0.6" fill="#fff" fill-opacity=".55"/><path d="M24.6 31h10L29.6 38.8Z" fill="#F5813F"/><path d="M27.200000000000003 33.6 h4.8" fill="none" stroke="#C75C24" stroke-width="1.1" stroke-linecap="round" stroke-linejoin="round" stroke-opacity=".8"/><ellipse cx="18.2" cy="30.8" rx="2.6" ry="1.8" fill="#F19AA8" fill-opacity=".62"/><ellipse cx="41" cy="30.8" rx="2.6" ry="1.8" fill="#F19AA8" fill-opacity=".62"/></g></g>
<g transform="translate(600 0) scale(1.5625)"><g transform="translate(2.4 3.2)"><ellipse cx="13.2" cy="32.8" rx="4.8" ry="6.4" fill="#8494C4" transform="rotate(-22 13.2 32.8)" fill-opacity=".92"/><ellipse cx="46" cy="32.8" rx="4.8" ry="6.4" fill="#8494C4" transform="rotate(22 46 32.8)" fill-opacity=".92"/><ellipse cx="29.6" cy="27.4" rx="16.6" ry="15.2" fill="#A9B8E0"/><ellipse cx="29.6" cy="32.57" rx="15.44" ry="9.42" fill="#8494C4" fill-opacity=".5"/><ellipse cx="29.6" cy="27.4" rx="16.6" ry="15.2" fill="none" stroke="#123C51" stroke-opacity=".16" stroke-width="1"/><path d="M29.6 -0.2 L26.1 14.6 L33.1 14.6 Z" fill="#F2E2B4"/><path d="M27.1 11.6 L32.2 10.4M27.8 8 L31.6 7M28.6 4.6 L31 4" fill="none" stroke="#C98A1E" stroke-width="1.1" stroke-linecap="round" stroke-linejoin="round" stroke-opacity=".7"/><ellipse cx="29.6" cy="35" rx="10.6" ry="6.4" fill="#E8EDFA" fill-opacity=".9"/><path d="M26.200000000000003 34.8 q3.4 3 6.8 0" fill="none" stroke="#123C51" stroke-width="1.6" stroke-linecap="round" stroke-linejoin="round"/><ellipse cx="22.6" cy="25" rx="3.1" ry="3.6" fill="#123C51"/><circle cx="21.6" cy="23.7" r="1.25" fill="#fff" fill-opacity=".92"/><circle cx="23.6" cy="26.2" r="0.6" fill="#fff" fill-opacity=".55"/><ellipse cx="36.6" cy="25" rx="3.1" ry="3.6" fill="#123C51"/><circle cx="35.6" cy="23.7" r="1.25" fill="#fff" fill-opacity=".92"/><circle cx="37.6" cy="26.2" r="0.6" fill="#fff" fill-opacity=".55"/><ellipse cx="16.8" cy="30.2" rx="3.2" ry="2.2" fill="#7FC7DE" fill-opacity=".62"/><ellipse cx="42.4" cy="30.2" rx="3.2" ry="2.2" fill="#7FC7DE" fill-opacity=".62"/></g></g>
<g transform="translate(700 0) scale(1.5625)"><g transform="translate(2.4 3.2)"><path d="M13.8 19.8 L16.5 8.6 L20.2 19.8 Z" fill="#EAF4FF"/><path d="M15.3 18.8 L16.6 11.2 L18.7 18.8 Z" fill="#FFFFFF" fill-opacity=".85"/><path d="M39 19.8 L42.7 8.6 L45.4 19.8 Z" fill="#EAF4FF"/><path d="M40.5 18.8 L42.6 11.2 L43.9 18.8 Z" fill="#FFFFFF" fill-opacity=".85"/><ellipse cx="29.6" cy="27.4" rx="17" ry="16" fill="#EAF4FF"/><ellipse cx="29.6" cy="32.84" rx="15.81" ry="9.92" fill="#B9D2E6" fill-opacity=".5"/><ellipse cx="29.6" cy="27.4" rx="17" ry="16" fill="none" stroke="#123C51" stroke-opacity=".16" stroke-width="1"/><ellipse cx="29.6" cy="35.8" rx="8.6" ry="6.2" fill="#FFFFFF" fill-opacity=".92"/><path d="M26.7 31.9 h5.8 l-2.9 3.3 Z" fill="#123C51"/><path d="M29.6 35.6 q0 3 -3 3M29.6 35.6 q0 3 3 3" fill="none" stroke="#123C51" stroke-width="1.5" stroke-linecap="round" stroke-linejoin="round" stroke-opacity=".8"/><ellipse cx="23.2" cy="27" rx="3.1" ry="3.6" fill="#123C51"/><circle cx="22.2" cy="25.7" r="1.25" fill="#fff" fill-opacity=".92"/><circle cx="24.2" cy="28.2" r="0.6" fill="#fff" fill-opacity=".55"/><ellipse cx="36" cy="27" rx="3.1" ry="3.6" fill="#123C51"/><circle cx="35" cy="25.7" r="1.25" fill="#fff" fill-opacity=".92"/><circle cx="37" cy="28.2" r="0.6" fill="#fff" fill-opacity=".55"/><ellipse cx="17.2" cy="32.8" rx="3.2" ry="2.2" fill="#7FC7DE" fill-opacity=".62"/><ellipse cx="42" cy="32.8" rx="3.2" ry="2.2" fill="#7FC7DE" fill-opacity=".62"/></g></g>
</svg>
