<svg xmlns="http://www.w3.org/2000/svg" viewBox="0 0 1000 700" role="img" aria-label="Butterfly garden theme">
<defs><linearGradient id="sky" x1="0" y1="0" x2="0" y2="1"><stop stop-color="#dff0ff"/><stop offset=".55" stop-color="#f4e9ff"/><stop offset="1" stop-color="#ffe8ef"/></linearGradient><linearGradient id="hill" x1="0" y1="0" x2="1" y2="1"><stop stop-color="#b8d8b6"/><stop offset="1" stop-color="#8db89f"/></linearGradient></defs>
<rect width="1000" height="700" fill="url(#sky)"/>
<path d="M0 420c135-94 266-98 396-10 116 79 227 80 333 4 102-73 191-71 271-17v303H0Z" fill="url(#hill)" opacity=".7"/>
<g fill="#ffbdd0"><circle cx="130" cy="555" r="45"/><circle cx="185" cy="525" r="40"/><circle cx="240" cy="568" r="42"/></g><g fill="#d8b5ee"><circle cx="760" cy="548" r="44"/><circle cx="817" cy="510" r="40"/><circle cx="870" cy="558" r="42"/></g>
<g fill="#6ea578"><ellipse cx="95" cy="515" rx="18" ry="74" transform="rotate(-25 95 515)"/><ellipse cx="270" cy="525" rx="18" ry="82" transform="rotate(30 270 525)"/><ellipse cx="725" cy="525" rx="18" ry="78" transform="rotate(-30 725 525)"/><ellipse cx="900" cy="520" rx="18" ry="80" transform="rotate(28 900 520)"/></g>
<g transform="translate(400 180)"><path d="M98 92C18 45 10-21 66 4c39 18 57 55 66 87-18 6-23 7-34 1Z" fill="#f49b47"/><path d="M132 91c12-36 35-72 75-85 59-19 42 45-32 86-17 9-27 8-43-1Z" fill="#f49b47"/><path d="M115 99C51 151 30 213 84 190c38-16 56-51 68-83-17-7-23-10-37-8Z" fill="#f7bd62"/><path d="M149 102c13 33 34 67 72 82 55 22 35-40-36-82-14-8-23-9-36 0Z" fill="#f7bd62"/><rect x="126" y="78" width="18" height="78" rx="9" fill="#443844"/><path d="M135 78c-12-27-24-34-40-39m41 39c12-27 25-34 41-39" fill="none" stroke="#443844" stroke-width="5" stroke-linecap="round"/></g>
<g transform="translate(650 260) scale(.55)"><path d="M98 92C18 45 10-21 66 4c39 18 57 55 66 87-18 6-23 7-34 1Z" fill="#81b9e8"/><path d="M132 91c12-36 35-72 75-85 59-19 42 45-32 86-17 9-27 8-43-1Z" fill="#81b9e8"/><path d="M115 99C51 151 30 213 84 190c38-16 56-51 68-83-17-7-23-10-37-8Z" fill="#a7d5f1"/><path d="M149 102c13 33 34 67 72 82 55 22 35-40-36-82-14-8-23-9-36 0Z" fill="#a7d5f1"/><rect x="126" y="78" width="18" height="78" rx="9" fill="#44506c"/></g>
<g fill="#fff6bb" opacity=".85"><circle cx="335" cy="128" r="7"/><circle cx="760" cy="138" r="6"/><circle cx="303" cy="302" r="5"/><circle cx="590" cy="100" r="4"/></g>
</svg>