<svg xmlns="http://www.w3.org/2000/svg" viewBox="0 0 64 64" width="64" height="64" role="img" aria-label="poop (safari)">
  <defs><linearGradient id="d-safari-poop" x1="0" y1="0" x2="0.6" y2="1">
    <stop offset="0" stop-color="#FDF3E2"/><stop offset="1" stop-color="#F5E1BE"/>
  </linearGradient></defs>
  <circle cx="32" cy="32" r="31" fill="url(#d-safari-poop)"/>
  <path d="M55.6 9.4c0 7.2-4.1 11.8-10.4 11.8 0-7.2 4.1-11.8 10.4-11.8Z" fill="#7C4A1C" fill-opacity=".46"/><path d="M45.6 21.6c1.5-4.1 4.1-7.7 7.7-10.1" stroke="#7C4A1C" stroke-opacity=".6" stroke-width="1.8" fill="none" stroke-linecap="round"/>
  <path d="M32 13.6c5.2 1.1 6.6 4.3 5.3 7.4h2.1c5.2 0 8.6 3.1 8.6 6.6 0 1.7-.7 3.2-2 4.5 4.1 1.1 6.4 3.8 6.4 6.8 0 4.2-4.6 7.5-10.4 7.5H22c-5.8 0-10.4-3.3-10.4-7.5 0-3 2.3-5.7 6.4-6.8a6 6 0 0 1-2-4.5c0-3.5 3.4-6.6 8.6-6.6h2.1c-1.3-3.1.1-6.3 5.3-7.4Z" fill="#7C4A1C"/>
    <circle cx="26" cy="33.4" r="2.2" fill="#fff" fill-opacity=".62"/>
    <circle cx="38" cy="33.4" r="2.2" fill="#fff" fill-opacity=".62"/>
</svg>
