<svg xmlns="http://www.w3.org/2000/svg" viewBox="0 0 64 64" width="64" height="64" role="img" aria-label="desert sun — nurse">
  <defs><linearGradient id="d-safari-sunset-nurse" x1="0" y1="0" x2="0.62" y2="1"><stop offset="0" stop-color="#FFF1D4"/><stop offset="1" stop-color="#F3CE9D"/></linearGradient></defs>
  <g stroke="#354456" stroke-width="1.7" stroke-linejoin="round" stroke-linecap="round"><circle cx="30" cy="26" r="17" fill="#EBC16F"/><path d="M7 46Q28 34 53 45" fill="none" stroke="#EEA4A5" stroke-width="4"/></g>
  <circle cx="46" cy="46" r="14.1" fill="#F3CE9D" fill-opacity=".85"/><circle cx="46" cy="46" r="13" fill="#FFFAF0"/><g transform="translate(34.8 34.8) scale(0.7)"><path d="M16 29.4C7.6 23.7 2.9 19.3 2.9 13.6A6.7 6.7 0 0 1 16 10.2a6.7 6.7 0 0 1 13.1 3.4c0 5.7-4.7 10.1-13.1 15.8Z" fill="#644A34"/>
    <path d="M16 22.6c-4.2-2.9-6.5-5.2-6.5-8a3.4 3.4 0 0 1 6.5-1.7 3.4 3.4 0 0 1 6.5 1.7c0 2.8-2.3 5.1-6.5 8Z" fill="#fff" fill-opacity=".66"/></g>
</svg>
