<svg xmlns="http://www.w3.org/2000/svg" viewBox="0 0 64 64" width="64" height="64" role="img" aria-label="Crystal City friends mascot">
  <defs><linearGradient id="m-crystalcity" x1="0" y1="0" x2="0.62" y2="1"><stop offset="0" stop-color="#F1EEFF"/><stop offset="1" stop-color="#DED8F8"/></linearGradient></defs>
  <circle cx="32" cy="32" r="31" fill="url(#m-crystalcity)"/>
  <g transform="translate(2.4 3.4) scale(1.08)" transform-origin="32 32"><path d="M29.6 12.4 V7.4" fill="none" stroke="#B7BEE2" stroke-width="2" stroke-linecap="round" stroke-linejoin="round"/><circle cx="29.6" cy="5" r="2.6" fill="#63D9F5"/><circle cx="29.6" cy="5" r="4.4" fill="#63D9F5" fill-opacity=".3"/><path d="M13.600000000000001 14.399999999999999h32a5 5 0 0 1 5 5v18a5 5 0 0 1 -5 5h-32a5 5 0 0 1 -5 -5v-18a5 5 0 0 1 5 -5Z" fill="#EDEFFC"/><path d="M18.6 20.4h22a3.4 3.4 0 0 1 3.4 3.4v10a3.4 3.4 0 0 1 -3.4 3.4h-22a3.4 3.4 0 0 1 -3.4 -3.4v-10a3.4 3.4 0 0 1 3.4 -3.4Z" fill="#1B1740"/><circle cx="24.6" cy="27.8" r="2.7" fill="#63D9F5"/><circle cx="34.6" cy="27.8" r="2.7" fill="#63D9F5"/><path d="M27 33.8 q2.6 2.2 5.2 0" fill="none" stroke="#63D9F5" stroke-width="1.6" stroke-linecap="round" stroke-linejoin="round" stroke-opacity=".9"/><ellipse cx="29.6" cy="45.8" rx="9.4" ry="2.4" fill="#63D9F5" fill-opacity=".45"/></g>
</svg>
