<svg xmlns="http://www.w3.org/2000/svg" viewBox="0 0 64 64" width="64" height="64" role="img" aria-label="jellyfish — nurse">
  <defs><linearGradient id="d-ember-nurse" x1="0" y1="0" x2="0.62" y2="1"><stop offset="0" stop-color="#E6FAFB"/><stop offset="1" stop-color="#CBEFF1"/></linearGradient></defs>
  <path d="M19.2 41q-2.2 4.62 0.88 8.4" fill="none" stroke="#D96FBB" stroke-width="2.2" stroke-linecap="round" stroke-linejoin="round" stroke-opacity=".92"/><path d="M24.4 41q2.2 4.62 -0.88 8.4" fill="none" stroke="#D96FBB" stroke-width="2.2" stroke-linecap="round" stroke-linejoin="round" stroke-opacity=".92"/><path d="M29.6 41q-2.2 4.62 0.88 8.4" fill="none" stroke="#D96FBB" stroke-width="2.2" stroke-linecap="round" stroke-linejoin="round" stroke-opacity=".92"/><path d="M34.8 41q2.2 4.62 -0.88 8.4" fill="none" stroke="#D96FBB" stroke-width="2.2" stroke-linecap="round" stroke-linejoin="round" stroke-opacity=".92"/><path d="M40 41q-2.2 4.62 0.88 8.4" fill="none" stroke="#D96FBB" stroke-width="2.2" stroke-linecap="round" stroke-linejoin="round" stroke-opacity=".92"/><path d="M13 32.8c0-11.4 7.4-19.4 16.6-19.4s16.6 8 16.6 19.4c0 3.6-2 5.2-4.6 4-3.1-1.4-5.8-1.4-8.5.4-2.7-1.8-5.4-1.8-8.5-.4-2.6 1.2-4.6-.4-4.6-4Z" fill="#F79AD8"/><path d="M19.200000000000003 22q5-5.2 11.2-3.4" fill="none" stroke="#ffffff" stroke-width="2.2" stroke-linecap="round" stroke-opacity=".6"/><ellipse cx="24.2" cy="28" rx="2.9" ry="3.2" fill="#0F4351"/><circle cx="23.2" cy="26.7" r="1.25" fill="#fff" fill-opacity=".92"/><circle cx="25.2" cy="29.2" r="0.6" fill="#fff" fill-opacity=".55"/><ellipse cx="35" cy="28" rx="2.9" ry="3.2" fill="#0F4351"/><circle cx="34" cy="26.7" r="1.25" fill="#fff" fill-opacity=".92"/><circle cx="36" cy="29.2" r="0.6" fill="#fff" fill-opacity=".55"/><path d="M26.8 34 q2.8 2.4 5.6 0" fill="none" stroke="#0F4351" stroke-width="1.6" stroke-linecap="round" stroke-linejoin="round"/><ellipse cx="19" cy="31.8" rx="2.6" ry="1.8" fill="#F58FA8" fill-opacity=".62"/><ellipse cx="40.2" cy="31.8" rx="2.6" ry="1.8" fill="#F58FA8" fill-opacity=".62"/>
  <circle cx="46" cy="46" r="11.299999999999999" fill="#CBEFF1" fill-opacity=".85"/><circle cx="46" cy="46" r="10.2" fill="#F7FEFF"/><g transform="translate(38.32 38.32) scale(0.48)"><path d="M16 29.4C7.6 23.7 2.9 19.3 2.9 13.6A6.7 6.7 0 0 1 16 10.2a6.7 6.7 0 0 1 13.1 3.4c0 5.7-4.7 10.1-13.1 15.8Z" fill="#0F4351"/>
    <path d="M16 22.6c-4.2-2.9-6.5-5.2-6.5-8a3.4 3.4 0 0 1 6.5-1.7 3.4 3.4 0 0 1 6.5 1.7c0 2.8-2.3 5.1-6.5 8Z" fill="#fff" fill-opacity=".66"/></g>
</svg>
